# xmcd
#
# Track frame offsets:
#	150
#	18905
#	26609
#	44089
#	61242
#	74327
#	79642
#	100554
#	115397
#	130468
#	146480
#	166075
#	182653
#	199620
#	208185
#
# Disc length: 2850 seconds
#
# Revision: 2
# Processed by: cddbd v1.5.2PL0 Copyright (c) Steve Scherf et al.
# Submitted via: CDmax 2.0
#
DISCID=cf0b200f
DTITLE=Little Axe - Stone Cold Ohio
DYEAR=2006
DGENRE=Blues
TTITLE0=If I Had My Way
TTITLE1=Jive Talk
TTITLE2=Same People
TTITLE3=Rockin' Shoes
TTITLE4=Pray
TTITLE5=Prisoner
TTITLE6=Victims
TTITLE7=Let Me Ride
TTITLE8=Trouble In Mind
TTITLE9=Blueneck Dub
TTITLE10=Hard Times
TTITLE11=Almighty
TTITLE12=No Bottom
TTITLE13=She
TTITLE14=No More Mourning
EXTD=
EXTT0=
EXTT1=
EXTT2=
EXTT3=
EXTT4=
EXTT5=
EXTT6=
EXTT7=
EXTT8=
EXTT9=
EXTT10=
EXTT11=
EXTT12=
EXTT13=
EXTT14=
PLAYORDER=
